<svg width="0" height="0" class="hidden">
  <symbol xmlns="http://www.w3.org/2000/svg" viewBox="0 0 27.949 27.949" id="noun-transaction-1198199">
    <g id="noun-transaction-1198199" transform="translate(-70)">
      <path id="Path_326" d="M97.949,0H70V2.795h2.795V25.154a2.8,2.8,0,0,0,2.795,2.795H92.359a2.8,2.8,0,0,0,2.795-2.795V2.795h2.795Zm-5.59,25.154H75.59V2.795H92.359Z" fill="#817f7e"></path>
      <path id="Path_327" d="M249.18,148.946l-1.956-1.956-2.236,2.236V140h-2.795v9.223l-2.236-2.236L238,148.946l5.59,5.59Z" transform="translate(-159.615 -133.015)" fill="#817f7e"></path>
    </g>
  </symbol>
  <symbol xmlns="http://www.w3.org/2000/svg" viewBox="0 0 15.776 15.777" id="Path 324">
    <path id="Path_324" d="M163.33,93.336H172.8v1.578h-7.888v12.621H172.8v1.578H163.33Zm10.2,4.542,1.116-1.116,3.346,3.347,1.115,1.115-4.462,4.462-1.116-1.116,2.558-2.557h-8.812v-1.578h8.812Z" transform="translate(-163.33 -93.336)" fill="#3f465e" fill-rule="evenodd"></path>
  </symbol>
  <symbol xmlns="http://www.w3.org/2000/svg" viewBox="0 0 14.615 14.615" id="Path 323">
    <path id="Path_323" d="M97.919,19.768H97.15a.694.694,0,0,1-.646-.462c-.031-.092-.077-.185-.108-.262a.679.679,0,0,1,.138-.785l.554-.554a.687.687,0,0,0,0-.985l-1.2-1.2a.687.687,0,0,0-.985,0l-.554.554a.7.7,0,0,1-.785.138c-.092-.031-.169-.077-.262-.108a.694.694,0,0,1-.462-.646v-.769A.689.689,0,0,0,92.15,14H90.458a.689.689,0,0,0-.692.692v.785a.679.679,0,0,1-.462.646,1.869,1.869,0,0,0-.262.108.71.71,0,0,1-.785-.138l-.554-.554a.687.687,0,0,0-.985,0l-1.2,1.2a.687.687,0,0,0,0,.985l.554.554a.7.7,0,0,1,.138.785,1.882,1.882,0,0,0-.108.262.694.694,0,0,1-.646.462h-.769a.689.689,0,0,0-.692.692v1.692a.686.686,0,0,0,.692.677h.754a.679.679,0,0,1,.646.462c.031.092.077.185.108.277a.71.71,0,0,1-.138.785l-.538.538a.687.687,0,0,0,0,.985l1.2,1.2a.687.687,0,0,0,.985,0l.523-.523A.681.681,0,0,1,89,26.429c.108.046.215.092.308.138a.7.7,0,0,1,.446.646v.708a.689.689,0,0,0,.692.692h1.692a.689.689,0,0,0,.692-.692v-.754a.7.7,0,0,1,.446-.646,1.868,1.868,0,0,0,.308-.138.681.681,0,0,1,.769.138l.523.523a.687.687,0,0,0,.985,0l1.2-1.2a.687.687,0,0,0,0-.985l-.523-.508a.7.7,0,0,1-.138-.785,2.059,2.059,0,0,0,.108-.277.694.694,0,0,1,.646-.462h.769a.689.689,0,0,0,.692-.692V20.445a.686.686,0,0,0-.692-.677ZM91.3,24A2.692,2.692,0,1,1,94,21.306,2.685,2.685,0,0,1,91.3,24Z" transform="translate(-83.996 -13.999)" fill="#3f465e"></path>
  </symbol>
  <symbol xmlns="http://www.w3.org/2000/svg" viewBox="0 0 12.446 18.577" id="Path 322">
    <path id="Path_322" d="M187.129,27.441h-.185a4.633,4.633,0,0,0-4.4,4.69v1.481h-.1a1.2,1.2,0,0,0-1.214,1.214v5.616a1.2,1.2,0,0,0,1.214,1.214h9.319a1.2,1.2,0,0,0,1.214-1.214V34.826a1.2,1.2,0,0,0-1.214-1.214h-.041v-1.6a4.587,4.587,0,0,0-4.588-4.567Zm.864,11.6a.228.228,0,0,1-.226.267h-1.358a.228.228,0,0,1-.226-.267l.267-1.275A1.005,1.005,0,0,1,186.965,36h.123a1.009,1.009,0,0,1,.638,1.79Zm1.707-5.431h-5.164V32.09a2.636,2.636,0,0,1,2.325-2.654c.082,0,.165-.021.247-.021a2.594,2.594,0,0,1,2.592,2.592Zm-8.27,11.15a1.1,1.1,0,0,1,.288-.123.38.38,0,0,1-.144-.041.517.517,0,0,1-.144-.082l-.555-.329.267-.453.555.329a1.281,1.281,0,0,1,.247.185,1.216,1.216,0,0,1-.041-.288v-.679h.555V44.1a.38.38,0,0,1-.041.144l.1-.1c.041-.021.082-.062.123-.082l.555-.329.267.453-.555.329c-.041.021-.1.062-.144.082a.383.383,0,0,1-.144.041.967.967,0,0,1,.309.123l.555.329-.267.473-.555-.329a1.281,1.281,0,0,1-.247-.185,1.216,1.216,0,0,1,.041.288v.679H181.9v-.823a.38.38,0,0,1,.041-.144l-.1.1c-.041.021-.082.062-.123.082l-.555.329-.267-.453Zm4.629-.165a.383.383,0,0,1-.144.041.967.967,0,0,1,.309.123l.555.329-.288.473-.555-.329a1.281,1.281,0,0,1-.247-.185,1.216,1.216,0,0,1,.041.288v.679h-.555v-.823a.38.38,0,0,1,.041-.144l-.1.1c-.041.021-.082.062-.123.082l-.576.309-.267-.453.555-.329a1.1,1.1,0,0,1,.288-.123.38.38,0,0,1-.144-.041.517.517,0,0,1-.144-.082l-.555-.329.267-.453.555.329a1.281,1.281,0,0,1,.247.185,1.216,1.216,0,0,1-.041-.288v-.679h.555V44.1a.38.38,0,0,1-.041.144l.1-.1c.041-.021.082-.062.123-.082l.555-.329.267.453-.555.329c-.02.041-.082.062-.123.082Zm3.271,0a.383.383,0,0,1-.144.041.967.967,0,0,1,.309.123l.555.329-.288.473-.555-.329a1.281,1.281,0,0,1-.247-.185,1.216,1.216,0,0,1,.041.288v.679h-.555v-.823a.38.38,0,0,1,.041-.144l-.1.1c-.041.021-.082.062-.123.082l-.555.329-.267-.453.555-.329a1.1,1.1,0,0,1,.288-.123.38.38,0,0,1-.144-.041.517.517,0,0,1-.144-.082l-.555-.329.267-.453.555.329a1.28,1.28,0,0,1,.247.185,1.217,1.217,0,0,1-.041-.288V43.3h.555v.823a.38.38,0,0,1-.041.144l.1-.1c.041-.021.082-.062.123-.082l.555-.329.267.453-.555.329c-.041.021-.1.041-.144.062Zm3.271,0a.383.383,0,0,1-.144.041.967.967,0,0,1,.309.123l.555.329-.288.473-.555-.329a1.281,1.281,0,0,1-.247-.185,1.216,1.216,0,0,1,.041.288v.679h-.555v-.823a.38.38,0,0,1,.041-.144l-.1.1c-.041.021-.082.062-.123.082l-.555.329-.267-.453.555-.329a1.1,1.1,0,0,1,.288-.123.38.38,0,0,1-.144-.041.517.517,0,0,1-.144-.082l-.555-.329.267-.453.555.329a1.281,1.281,0,0,1,.247.185,1.216,1.216,0,0,1-.041-.288V43.3h.555v.823a.38.38,0,0,1-.041.144l.1-.1c.041-.021.082-.062.123-.082l.555-.329.267.453-.555.329c-.041.021-.1.041-.144.062Z" transform="translate(-180.875 -27.441)" fill="#3f465e"></path>
  </symbol>
  <symbol xmlns="http://www.w3.org/2000/svg" viewBox="0 0 14.166 11.424" id="Path 321">
    <path id="Path_321" d="M188.964,140H178a1.6,1.6,0,0,0-1.6,1.6v8.225a1.6,1.6,0,0,0,1.6,1.6h10.967a1.6,1.6,0,0,0,1.6-1.6V141.6a1.6,1.6,0,0,0-1.6-1.6ZM178,141.371h10.967a.228.228,0,0,1,.229.228v2.056H177.768V141.6a.228.228,0,0,1,.229-.228Zm10.967,8.682H178a.228.228,0,0,1-.229-.228v-4.8h11.424v4.8a.228.228,0,0,1-.229.228Z" transform="translate(-176.397 -140)" fill="#3f465e"></path>
  </symbol>
  <symbol xmlns="http://www.w3.org/2000/svg" viewBox="0 0 14.177 18.479" id="noun-accounting-4619554">
    <g id="noun-accounting-4619554" transform="translate(-96.728)">
      <path id="Path_304" d="M148.145,0H136.413a1.224,1.224,0,0,0-1.224,1.221V17.255a1.224,1.224,0,0,0,1.224,1.224h11.731a1.224,1.224,0,0,0,1.221-1.224V1.221A1.224,1.224,0,0,0,148.145,0Zm.5,17.255a.5.5,0,0,1-.5.5H136.413a.5.5,0,0,1-.488-.5V1.221a.5.5,0,0,1,.488-.5h11.731a.5.5,0,0,1,.5.5Z" transform="translate(-38.461)" fill="#3f465e"></path>
      <path id="Path_305" d="M192.974,47.426H182.623a.361.361,0,0,0-.361.361v3.6a.361.361,0,0,0,.361.361h10.351a.361.361,0,0,0,.358-.361v-3.6a.361.361,0,0,0-.358-.361Zm-.361,3.6h-9.629V48.142h9.629Z" transform="translate(-83.98 -45.861)" fill="#3f465e"></path>
      <path id="Path_306" d="M185.361,197.66H186.4a.6.6,0,0,1,.563.563v1.042a.563.563,0,0,1-.563.563h-1.042a.6.6,0,0,1-.563-.563v-1.042A.563.563,0,0,1,185.361,197.66Z" transform="translate(-86.433 -191.138)" fill="#3f465e"></path>
      <path id="Path_307" d="M185.977,444.32h-1.039a.577.577,0,0,0-.577.577v1.037a.577.577,0,0,0,.577.577h1.039a.577.577,0,0,0,.577-.577v-1.048a.578.578,0,0,0-.577-.566Z" transform="translate(-86.009 -429.658)" fill="#3f465e"></path>
      <path id="Path_308" d="M274.267,280h-1.039a.578.578,0,0,0-.578.563V281.6a.578.578,0,0,0,.577.577h1.039a.577.577,0,0,0,.563-.577v-1.039a.577.577,0,0,0-.563-.563Z" transform="translate(-171.385 -270.76)" fill="#3f465e"></path>
      <path id="Path_309" d="M274.267,362.16h-1.039a.578.578,0,0,0-.577.577v1.037h0a.578.578,0,0,0,.577.578h1.039a.577.577,0,0,0,.563-.578v-1.051a.577.577,0,0,0-.563-.563Z" transform="translate(-171.386 -350.209)" fill="#3f465e"></path>
      <path id="Path_310" d="M273.561,197.66H274.6a.6.6,0,0,1,.563.563v1.042a.563.563,0,0,1-.563.563h-1.042a.6.6,0,0,1-.563-.563v-1.042A.563.563,0,0,1,273.561,197.66Z" transform="translate(-171.722 -191.138)" fill="#3f465e"></path>
      <path id="Path_311" d="M185.977,280h-1.039a.577.577,0,0,0-.577.563V281.6a.577.577,0,0,0,.577.577h1.039a.577.577,0,0,0,.577-.577v-1.039a.577.577,0,0,0-.577-.563Z" transform="translate(-86.009 -270.76)" fill="#3f465e"></path>
      <path id="Path_312" d="M185.977,362.159h-1.039a.577.577,0,0,0-.577.577v1.037h0a.577.577,0,0,0,.577.577h1.039a.577.577,0,0,0,.577-.577v-1.051a.577.577,0,0,0-.577-.563Z" transform="translate(-86.009 -350.209)" fill="#3f465e"></path>
      <path id="Path_313" d="M362.557,444.319h-1.039a.577.577,0,0,0-.577.577v1.037a.577.577,0,0,0,.577.577h1.039a.577.577,0,0,0,.563-.578v-1.048a.577.577,0,0,0-.563-.566Z" transform="translate(-256.762 -429.658)" fill="#3f465e"></path>
      <path id="Path_314" d="M450.141,197.66h1.042a.6.6,0,0,1,.563.563v1.042a.563.563,0,0,1-.563.563h-1.042a.6.6,0,0,1-.563-.563v-1.042A.563.563,0,0,1,450.141,197.66Z" transform="translate(-342.475 -191.138)" fill="#3f465e"></path>
      <path id="Path_315" d="M451.18,280h-1.039a.577.577,0,0,0-.563.563V281.6a.578.578,0,0,0,.563.577h1.039a.577.577,0,0,0,.577-.577v-1.039a.577.577,0,0,0-.577-.563Z" transform="translate(-342.475 -270.76)" fill="#3f465e"></path>
      <path id="Path_316" d="M451.18,362.16H450.14a.578.578,0,0,0-.563.577v3.754a.578.578,0,0,0,.563.577h1.039a.578.578,0,0,0,.577-.577v-3.754a.577.577,0,0,0-.577-.577Z" transform="translate(-342.475 -350.209)" fill="#3f465e"></path>
      <path id="Path_317" d="M361.851,197.66h1.042a.6.6,0,0,1,.563.563v1.042a.563.563,0,0,1-.563.563h-1.042a.6.6,0,0,1-.563-.563v-1.042A.563.563,0,0,1,361.851,197.66Z" transform="translate(-257.099 -191.138)" fill="#3f465e"></path>
      <path id="Path_318" d="M274.267,444.319h-1.039a.578.578,0,0,0-.577.577v1.037a.578.578,0,0,0,.577.577h1.039a.577.577,0,0,0,.563-.578v-1.048a.577.577,0,0,0-.563-.566Z" transform="translate(-171.386 -429.658)" fill="#3f465e"></path>
      <path id="Path_319" d="M362.557,362.16h-1.039a.577.577,0,0,0-.577.577v1.037h0a.577.577,0,0,0,.577.578h1.039a.577.577,0,0,0,.563-.578v-1.051a.577.577,0,0,0-.563-.563Z" transform="translate(-256.762 -350.209)" fill="#3f465e"></path>
      <path id="Path_320" d="M362.557,280h-1.039a.577.577,0,0,0-.577.563V281.6a.577.577,0,0,0,.577.577h1.039a.577.577,0,0,0,.563-.577v-1.039a.578.578,0,0,0-.563-.563Z" transform="translate(-256.762 -270.76)" fill="#3f465e"></path>
    </g>
  </symbol>
  <symbol xmlns="http://www.w3.org/2000/svg" viewBox="0 0 18.132 15.412" id="Icon material-home (2)">
    <path id="Icon_material-home" d="M10.253,19.912v-5.44h3.626v5.44h4.533V12.66h2.72L12.066,4.5,3,12.66H5.72v7.253Z" transform="translate(-3 -4.5)" fill="#3f465e"></path>
  </symbol>
  <symbol xmlns="http://www.w3.org/2000/svg" viewBox="0 0 33.674 33.674" id="Path 325">
    <path id="Path_325" d="M116.075,27.291H114.3a1.6,1.6,0,0,1-1.489-1.063c-.071-.213-.177-.425-.248-.6a1.566,1.566,0,0,1,.319-1.808l1.276-1.276a1.584,1.584,0,0,0,0-2.269L111.4,17.508a1.584,1.584,0,0,0-2.269,0l-1.276,1.276a1.624,1.624,0,0,1-1.808.319c-.213-.071-.39-.177-.6-.248a1.6,1.6,0,0,1-1.063-1.489V15.594a1.588,1.588,0,0,0-1.6-1.6h-3.9a1.588,1.588,0,0,0-1.6,1.6V17.4a1.565,1.565,0,0,1-1.063,1.489,4.305,4.305,0,0,0-.6.248,1.636,1.636,0,0,1-1.808-.319l-1.276-1.276a1.584,1.584,0,0,0-2.269,0l-2.765,2.765a1.584,1.584,0,0,0,0,2.269l1.276,1.276A1.624,1.624,0,0,1,89.1,25.66a4.336,4.336,0,0,0-.248.6,1.6,1.6,0,0,1-1.489,1.063H85.591a1.588,1.588,0,0,0-1.6,1.6v3.9a1.581,1.581,0,0,0,1.6,1.56h1.737a1.565,1.565,0,0,1,1.489,1.063c.071.213.177.425.248.638a1.636,1.636,0,0,1-.319,1.808L87.506,39.13a1.584,1.584,0,0,0,0,2.269l2.765,2.765a1.584,1.584,0,0,0,2.269,0l1.205-1.205a1.569,1.569,0,0,1,1.772-.319c.248.106.5.213.709.319a1.618,1.618,0,0,1,1.028,1.489v1.631a1.588,1.588,0,0,0,1.6,1.6h3.9a1.588,1.588,0,0,0,1.6-1.6V44.341a1.6,1.6,0,0,1,1.028-1.489,4.3,4.3,0,0,0,.709-.319,1.569,1.569,0,0,1,1.772.319l1.205,1.205a1.584,1.584,0,0,0,2.269,0l2.765-2.765a1.584,1.584,0,0,0,0-2.269l-1.205-1.17a1.613,1.613,0,0,1-.319-1.808,4.744,4.744,0,0,0,.248-.638,1.6,1.6,0,0,1,1.489-1.063h1.772a1.588,1.588,0,0,0,1.595-1.6v-3.9a1.581,1.581,0,0,0-1.595-1.56Zm-15.242,9.748a6.2,6.2,0,1,1,6.2-6.2A6.187,6.187,0,0,1,100.834,37.039Z" transform="translate(-83.996 -13.999)" fill="#fff"></path>
  </symbol>
  <symbol xmlns="http://www.w3.org/2000/svg" viewBox="0 0 27.21 20.407" id="Path 288">
    <path id="Path_288" d="M286.758,212.8H261.249a.85.85,0,0,0-.851.851v11.9a.851.851,0,0,0,.851.851H267.3l.757,6.058a.85.85,0,0,0,.843.744h11.054a.85.85,0,0,0,.851-.851V226.4h5.952a.85.85,0,0,0,.851-.851v-11.9a.85.85,0,0,0-.851-.85ZM272.3,214.5h3.4v5.151a2.962,2.962,0,0,0-.851,2.077V224.7H272.3Zm6.8,17.006h-9.453l-.638-5.1H275.7a.85.85,0,0,0,.851-.851v-3.826a1.275,1.275,0,0,1,2.55,0Z" transform="translate(-260.398 -212.8)" fill="rgba(53,49,48,0.6)"></path>
  </symbol>
</svg>